<?xml version="1.0" standalone="no"?>
<!DOCTYPE svg PUBLIC "-//W3C//DTD SVG 20010904//EN"
 "http://www.w3.org/TR/2001/REC-SVG-20010904/DTD/svg10.dtd">
<svg version="1.0" xmlns="http://www.w3.org/2000/svg"
 width="250.000000pt" height="250.000000pt" viewBox="0 0 250.000000 250.000000"
 preserveAspectRatio="xMidYMid meet">
<metadata>
Created by potrace 1.11, written by Peter Selinger 2001-2013
</metadata>
<g transform="translate(0.000000,250.000000) scale(0.100000,-0.100000)"
fill="#000000" stroke="none">
<path d="M1118 2495 c-2 -1 -21 -5 -43 -8 -22 -3 -62 -10 -90 -17 -27 -6 -57
-13 -65 -15 -46 -9 -155 -52 -225 -87 -373 -187 -619 -528 -683 -948 -9 -57
-9 -290 0 -350 12 -81 57 -238 90 -312 148 -336 418 -582 765 -696 89 -30 110
-35 223 -52 79 -12 312 -4 401 13 379 76 707 328 879 675 43 86 86 209 101
287 5 28 12 61 15 75 13 56 12 307 -3 390 -16 93 -50 219 -64 235 -5 5 -9 15
-9 22 0 7 -15 44 -32 81 -111 232 -314 442 -548 569 -94 51 -254 105 -380 128
-36 7 -326 16 -332 10z"/>
</g>
</svg>
